<svg xmlns="http://www.w3.org/2000/svg" width="128" height="128" viewBox="0 0 128 128" fill="none">
  <title>Balik</title>
  <defs>
    <linearGradient id="body" x1="18" y1="45" x2="101" y2="87" gradientUnits="userSpaceOnUse">
      <stop stop-color="#62D7FF"/>
      <stop offset="0.6" stop-color="#2797E8"/>
      <stop offset="1" stop-color="#1764B8"/>
    </linearGradient>
    <linearGradient id="fin" x1="73" y1="34" x2="110" y2="93" gradientUnits="userSpaceOnUse">
      <stop stop-color="#FFB84E"/>
      <stop offset="1" stop-color="#F36E21"/>
    </linearGradient>
  </defs>
  <path d="M92 49l22-17v28l-12 5 12 5v28L92 81c-9 8-22 13-37 13-23 0-40-13-49-29 9-16 26-29 49-29 15 0 28 5 37 13Z" fill="url(#body)"/>
  <path d="M92 49l22-17v28l-12 5 12 5v28L92 81" fill="url(#fin)"/>
  <path d="M36 42c-10 5-18 13-24 23 8 13 23 23 43 23 13 0 25-4 33-11" stroke="#0D4D95" stroke-width="4" stroke-linecap="round" opacity="0.28"/>
  <path d="M49 48c8 7 8 25 0 34" stroke="#A7EAFF" stroke-width="5" stroke-linecap="round" opacity="0.75"/>
  <circle cx="75" cy="56" r="6" fill="#10385F"/>
  <circle cx="77" cy="54" r="2" fill="#FFFFFF"/>
</svg>
